<?xml version="1.0" encoding="UTF-8" standalone="no" ?>
<!DOCTYPE svg PUBLIC "-//W3C//DTD SVG 1.1//EN" "http://www.w3.org/Graphics/SVG/1.1/DTD/svg11.dtd">
<svg xmlns="http://www.w3.org/2000/svg" xmlns:xlink="http://www.w3.org/1999/xlink" version="1.1" width="50" height="50" viewBox="0 0 50 50" xml:space="preserve">
<desc>Created with Fabric.js 4.6.0</desc>
<defs>
</defs>
<g transform="matrix(1 0 0 1 25 25)" id="79ZysSvT5AYANPTEIjWO_"  >
<path style="stroke: rgb(100,100,100); stroke-width: 2; stroke-dasharray: none; stroke-linecap: butt; stroke-dashoffset: 0; stroke-linejoin: miter; stroke-miterlimit: 4; fill: none; fill-rule: nonzero; opacity: 1;" vector-effect="non-scaling-stroke"  transform=" translate(-24, -24)" d="M 24 0 C 37.248 0 48 10.752 48 24 C 48 37.248 37.248 48 24 48 C 10.752 48 0 37.248 0 24 C 0 10.752 10.752 0 24 0 z" stroke-linecap="round" />
</g>
<g transform="matrix(0.32 0 0 0.32 25 25)" id="IOtWn00158lZdp0I1s2i8"  >
<path style="stroke: rgb(100,100,100); stroke-width: 0; stroke-dasharray: none; stroke-linecap: butt; stroke-dashoffset: 0; stroke-linejoin: miter; stroke-miterlimit: 4; fill: rgb(100,100,100); fill-rule: nonzero; opacity: 1;" vector-effect="non-scaling-stroke"  transform=" translate(-40, -40)" d="M 80 52.5 L 52.5 52.5 L 52.5 80 L 27.5 80 L 27.5 52.5 L 0 52.5 L 0 27.5 L 27.5 27.5 L 27.5 0 L 52.5 0 L 52.5 27.5 L 80 27.5 L 80 52.5 z" stroke-linecap="round" />
</g>
</svg>