<?xml version="1.0" encoding="UTF-8" standalone="no" ?>
<!DOCTYPE svg PUBLIC "-//W3C//DTD SVG 1.1//EN" "http://www.w3.org/Graphics/SVG/1.1/DTD/svg11.dtd">
<svg xmlns="http://www.w3.org/2000/svg" xmlns:xlink="http://www.w3.org/1999/xlink" version="1.1" width="50" height="50" viewBox="0 0 50 50" xml:space="preserve">
<desc>Created with Fabric.js 4.6.0</desc>
<defs>
</defs>
<g transform="matrix(2.93 0 0 0.41 31.87 12.74)" id="Q1g002op893QR2eiUjVT2"  >
<path style="stroke: rgb(0,0,0); stroke-width: 0; stroke-dasharray: none; stroke-linecap: butt; stroke-dashoffset: 0; stroke-linejoin: miter; stroke-miterlimit: 4; fill: rgb(255,255,255); fill-rule: nonzero; opacity: 1;" vector-effect="non-scaling-stroke"  transform=" translate(0, 0)" d="M -5.71429 -5.71429 L 5.7142800000000005 -5.71429 L 5.7142800000000005 5.7142800000000005 L -5.71429 5.7142800000000005 z" stroke-linecap="round" />
</g>
<g transform="matrix(2.93 0 0 0.41 31.87 37.3)" id="xqqCfV-J0VtFmQFC7y3jA"  >
<path style="stroke: rgb(0,0,0); stroke-width: 0; stroke-dasharray: none; stroke-linecap: butt; stroke-dashoffset: 0; stroke-linejoin: miter; stroke-miterlimit: 4; fill: rgb(255,255,255); fill-rule: nonzero; opacity: 1;" vector-effect="non-scaling-stroke"  transform=" translate(0, 0)" d="M -5.71429 -5.71429 L 5.7142800000000005 -5.71429 L 5.7142800000000005 5.7142800000000005 L -5.71429 5.7142800000000005 z" stroke-linecap="round" />
</g>
<g transform="matrix(1.27 1.27 -0.35 0.27 9.85 30.73)" id="r3f__L-oAgjFOGhn5Emzk"  >
<path style="stroke: rgb(0,0,0); stroke-width: 0; stroke-dasharray: none; stroke-linecap: butt; stroke-dashoffset: 0; stroke-linejoin: miter; stroke-miterlimit: 4; fill: rgb(255,255,255); fill-rule: nonzero; opacity: 1;" vector-effect="non-scaling-stroke"  transform=" translate(0, 0)" d="M -5.71429 -5.71429 L 5.7142800000000005 -5.71429 L 5.7142800000000005 5.7142800000000005 L -5.71429 5.7142800000000005 z" stroke-linecap="round" />
</g>
<g transform="matrix(1.26 -1.26 0.35 0.27 9.93 19.19)" id="AcmG2CZOGN8t9tgtINMc7"  >
<path style="stroke: rgb(0,0,0); stroke-width: 0; stroke-dasharray: none; stroke-linecap: butt; stroke-dashoffset: 0; stroke-linejoin: miter; stroke-miterlimit: 4; fill: rgb(255,255,255); fill-rule: nonzero; opacity: 1;" vector-effect="non-scaling-stroke"  transform=" translate(0, 0)" d="M -5.71429 -5.71429 L 5.7142800000000005 -5.71429 L 5.7142800000000005 5.7142800000000005 L -5.71429 5.7142800000000005 z" stroke-linecap="round" />
</g>
<g transform="matrix(0 2.55 -0.47 0 45.91 24.99)" id="ovQNIMnPbfuWAV8hmi0Ua"  >
<path style="stroke: rgb(0,0,0); stroke-width: 0; stroke-dasharray: none; stroke-linecap: butt; stroke-dashoffset: 0; stroke-linejoin: miter; stroke-miterlimit: 4; fill: rgb(255,255,255); fill-rule: nonzero; opacity: 1;" vector-effect="non-scaling-stroke"  transform=" translate(0, 0)" d="M -5.71429 -5.71429 L 5.7142800000000005 -5.71429 L 5.7142800000000005 5.7142800000000005 L -5.71429 5.7142800000000005 z" stroke-linecap="round" />
</g>
<g transform="matrix(0.11 0 0 0.11 28.58 24.24)" id="E8xZb6XN3Yj86RdtTolRF"  >
<path style="stroke: none; stroke-width: 1; stroke-dasharray: none; stroke-linecap: butt; stroke-dashoffset: 0; stroke-linejoin: miter; stroke-miterlimit: 4; fill: rgb(255,255,255); fill-rule: nonzero; opacity: 1;" vector-effect="non-scaling-stroke"  transform=" translate(-40, -40)" d="M 63.366 80 L 40 56.634 L 16.634 80 L 0 63.366 L 23.366 40 L 0 16.634 L 16.634 0 L 40 23.366 L 63.366 0 L 80 16.634 L 56.634 40 L 80 63.366 L 63.366 80 z" stroke-linecap="round" />
</g>
</svg>